<?xml version="1.0" encoding="utf-8"?>
<!-- Generator: Adobe Illustrator 26.0.1, SVG Export Plug-In . SVG Version: 6.00 Build 0)  -->
<svg version="1.1" id="Layer_1" xmlns="http://www.w3.org/2000/svg" xmlns:xlink="http://www.w3.org/1999/xlink" x="0px" y="0px"
	 viewBox="0 0 1920 1080" style="enable-background:new 0 0 1920 1080;" xml:space="preserve">
<style type="text/css">
	.st0{fill:#FCE2B6;}
	.st1{fill:#292929;}
	.st2{fill:#292928;}
	.st3{fill:#2A2A29;}
	.st4{fill:#2A2A2A;}
	.st5{fill:#AD140B;}
	.st6{fill:#0B2472;}
	.st7{fill:#CC680A;}
	.st8{fill:#FCE1B4;}
	.st9{fill:#D4D4D4;}
	.st10{fill:#D2D2D2;}
	.st11{fill:#ABABAB;}
	.st12{fill:#D1D1D1;}
	.st13{fill:#CFCFCF;}
	.st14{fill:#DDC3C2;}
</style>
<g>
	<path class="st0" d="M405.94,660.79c-0.05,12.38-0.14,23.04-3.7,33.25c-11.64,33.4-51.13,46.83-80.87,27.58
		c-15.06-9.75-23.55-24.7-31.71-39.78c-10.49-19.38-20.34-39.11-30.37-58.74c-7.37-14.43-14.07-29.18-18.62-44.77
		c-1.64-5.62-4.82-8.34-10.69-8.23c-39.6,0.73-76.95-9.43-112.44-25.73c-30.97-14.22-50.44-38.5-56.5-72.92
		c-2.48-14.05-0.91-27.34,4.5-40.11c6.71-15.83,19.09-25.6,35.88-28.9c15.44-3.03,30.45,1.36,45.48,4.29
		c16.18,3.15,31.48,9.24,47.14,14.12c9.36,2.92,12.18,0.41,9.83-9.04c-4.1-16.49-4.69-33.5-5.65-50.19
		c-2.06-35.7-0.34-71.4,11.16-105.8c8.04-24.04,19.33-46.57,36.41-65.46c26.09-28.85,58.27-45.18,97.92-45.8
		c46.8-0.73,78.23,22.63,99.82,62.09c14.89,27.21,20.69,56.72,22.14,87.35c1.33,28.3-3.67,55.8-10.87,82.93
		c-1.65,6.24,0.18,8.52,5.57,10.5c10.74,3.95,21.44,8.06,30.02,16.19c4.34,4.11,6.83-0.25,8.95-2.99
		c5.22-6.74,10.92-12.78,18.14-17.52c26.38-17.33,68.54-8.39,84.65,19.32c1,1.72,2.23,3.3,3.25,5.01c2.43,4.03,5.56,4.7,9.37,2.02
		c25.95-18.27,66.36-11.68,85.74,11.29c5.24,6.2,8.54,3.2,12.47-1.13c24.42-26.83,66.65-24.35,89.6,1.26
		c6.52,7.28,11.62,15.51,14.1,25.18c0.47,1.82,1.02,4.39,3.2,4.71c2.23,0.32,2.97-2.16,4.18-3.7c9.99-12.66,19.14-26.07,32.21-35.97
		c6.27-4.75,12.89-9.05,20.52-10.94c4.06-1,7.14-2.74,10.07-5.49c17.14-16.08,37.11-18.84,58.67-11.41
		c8.33,2.87,16.86,5.75,23.15,12.95c3.34,3.82,7.79,3.89,12.82,0.98c17.58-10.18,35.73-18.96,56.97-17.38
		c17.44,1.3,33.77,5.92,48.12,16.26c6.82,4.91,11.95,4.86,17.53-1.67c3.05-3.58,6.93-2.04,10.3-3.28
		c25.69-9.44,46.72-0.51,65.22,17.18c11,10.52,10.95,10.92,23.45,2.17c32-22.4,70.25-20.48,100.97-0.26
		c1.04,0.69,2.13,1.34,3.02,2.2c5.61,5.41,9.01,3.97,12.11-2.92c7.47-16.57,22.04-21.7,38.73-21.99c7.22-0.12,14.31,2.97,20.42,6.31
		c6.31,3.44,10.12,2.04,14.41-2.28c8.36-8.44,16.18-17.38,26.34-23.97c35.45-23.02,79.46-18.84,109.6,10.65
		c1.98,1.94,3.75,5.86,7.17,3.94c3.08-1.73,2.43-5.48,2.38-8.83c-0.17-10.87,1.21-21.64,3.2-32.32c1.38-7.42,3.34-14.68,6.85-21.4
		c16.29-31.15,55.44-38.14,81.03-15.1c12.03,10.83,17.47,26.59,21.55,42.34c5.39,20.82,10.67,41.67,14.55,62.83
		c0.96,5.23,3.5,6.67,8.15,6.17c12.62-1.35,25.33-1.95,37.6,1.64c16.11,4.72,30.07,12.72,42.56,24.73
		c30.03,28.86,40.46,65.44,45.56,104.86c5.92,45.65,4.82,91.51,4.03,137.28c-0.43,25.11-9.85,47.5-29.45,64.7
		c-19.27,16.9-50.94,19.41-75.56,4.8c-6.09-3.61-7.14-1.1-8.32,3.72c-3.78,15.35-8.88,30.11-20.35,41.64
		c-25.6,25.73-62.81,25.73-88.42,0.13c-1.24-1.24-2.59-2.37-3.69-3.72c-3.36-4.15-6.45-4.74-10.29-0.3
		c-19.97,23.08-71.33,27.6-95.82,8.97c-12.2-9.28-23.37-18.8-30.47-31.95c-8.24-15.25-13.1-31.84-13.32-49.55
		c-0.27-22.19,2.72-44.08,5.48-65.99c0.69-5.44-0.81-7.19-6.09-7.39c-11.36-0.42-23.02,2.16-33.99-2.77
		c-5.9-2.66-12.06-5-17.43-8.52c-4.86-3.18-7.3-1.57-9.46,2.59c-3.21,6.18-6.21,12.42-10.46,18.06
		c-8.03,10.66-18.25,18.15-30.89,22.2c-11.68,3.75-23.59,2.33-35.2-0.04c-8.7-1.77-10.43-0.82-8.32,8.09
		c3.93,16.53,6.08,33.42,5.28,50.22c-2.15,45.07-15.91,85.63-53.17,114.06c-15.93,12.16-34.09,19.46-56,17.03
		c-20.3-2.25-36.92-9.74-50.64-23.86c-13.67-14.07-21.42-31.65-25.48-50.69c-2.73-12.85-4-25.91-4.91-39.07
		c-1.51-21.99-3.53-43.97-6.66-65.82c-1.62-11.28-2.84-22.65-3.45-34.02c-0.31-5.69-2.61-8.36-7.84-8.8
		c-11.51-0.97-21.75-5.33-30.92-12.01c-4.73-3.44-8.18-3.02-12.45,0.64c-26.94,23.16-58.32,25.04-87.94,5.5
		c-1.04-0.68-2.04-1.43-3.11-2.06c-1.66-0.97-3.31-2.86-5.34-1.66c-1.7,1-1.06,3.2-0.93,4.85c0.46,5.93,0.76,11.91,1.74,17.77
		c4.35,26.06,7.4,52.28,5.55,78.67c-2.65,37.85-14.92,72.12-39.56,101.75c-19.07,22.92-42.19,39.16-71.01,46.79
		c-12.83,3.4-25.92,2.73-39.24,2.32c-23.88-0.73-44.35-9.71-64.37-20.97c-20.15-11.33-34.05-28.73-45.64-48.17
		c-7.4-12.43-14.12-25.44-16.11-39.87c-4.12-29.96-2.15-58.49,23.73-79.69c7.87-6.45,16.88-10.48,26.91-11.85
		c4.82-0.66,7.14-2.51,6.86-7.66c-0.3-5.45-2.25-6.27-7.12-4.09c-14.47,6.48-29.22,10.5-45.53,7.43
		c-8.68-1.64-16.91,0.18-25.43,5.19c-21.13,12.45-44.64,17.82-68.86,11.8c-10.53-2.62-14.95,4-20.43,8.73
		c-19.58,16.89-42.01,22.8-67.65,24.26c-36.07,2.05-73.72-33.58-81.14-66.25C409.82,666.92,409.56,664.24,405.94,660.79z
		 M744.12,577.91c1.32,2.95,2.43,6.03,4.01,8.83c5.8,10.25,11.9,20.34,22.73,26.17c7.56,4.07,16.16,3.08,20.8-2
		c5.81-6.35,2.9-12.3-0.69-18.4c-5.98-10.16-10.47-20.87-12.33-32.65c-3.68-23.29-3.01-46.73-2.82-70.16
		c0.06-7.69,0.39-15.39,0.23-23.08c-0.1-4.68-2.64-8.07-7.33-9.23c-4.72-1.17-8.24,1.08-10.92,4.72
		c-4.19,5.69-6.83,12.16-8.79,18.88c-5.44,18.7-8.61,37.86-11.29,57.11c-3.94,6.03-7.71,12.18-11.87,18.05
		c-5.78,8.16-12.17,15.81-21.17,20.69c-8.03,4.36-10.17,3.61-13.41-4.68c-2.9-7.45-4.6-15.19-5.35-23.17
		c-1.79-18.99,0.7-37.76,2.64-56.57c0.56-5.39,1.51-11.61-5.43-13.85c-6.45-2.07-9.32,3.01-12.16,7.48
		c-9.73,15.27-16.25,31.81-19.5,49.63c-0.63,1.04-1.29,2.07-1.87,3.13c-9.88,18.03-21.28,34.95-37.14,48.3
		c-3.72,3.13-7.99,8.91-13.34,5.9c-5.32-2.99-2.7-9.49-2.11-14.51c2.37-20.27,7.69-40.13,8.66-60.61
		c0.84-17.59-0.14-34.88-8.3-51.01c-3.31-6.53-8.16-11.35-15.37-13.24c-8.67-2.27-14.55,2.1-14.21,11.02
		c0.36,9.39-1.23,18.38-4.14,27.17c-5.78,17.47-12.09,34.78-17.59,52.34c-4.93,15.74-8.94,31.81-5.41,48.49
		c4.04,19.11,13.49,34.78,32.69,41.38c19.28,6.63,35.55-0.23,49.29-14.57c9.59-10.01,16.64-21.7,23.52-33.57
		c1.19-2.05,1.12-5.87,5.24-5.08c0.8,5.46,2.55,10.65,4.8,15.63c9.34,20.62,31.07,29.2,50.9,19.94c12.05-5.62,21.1-14.73,28.62-25.6
		C738.63,586.59,740.07,581.39,744.12,577.91z M361.59,501.05c-3.46-9.78-6.91-19.57-10.38-29.34c-4.22-11.85-4.19-11.8,4.92-19.83
		c2.8-2.47,5.44-5.14,7.93-7.91c43.68-48.41,59.79-105.28,51.99-169.49c-3.11-25.56-12.7-48.05-31.23-66.35
		c-18.53-18.3-43.15-20.9-64.78-6.41c-16.96,11.37-27.87,27.63-35.46,46.22c-12.66,31-16.55,63.65-16.19,96.72
		c0.43,39.23,5.2,78.09,14.07,116.37c1.06,4.58,0.47,7.19-4.55,9.02c-21.59,7.87-43.61,12.67-66.68,10.15
		c-21.52-2.35-41.42-8.86-57.2-24.65c-2.65-2.65-5.12-6.6-9.24-3.38c-3.61,2.83-1.91,6.92-0.05,10.22c1.7,3.02,3.73,5.94,6.03,8.52
		c7.9,8.86,17.38,15.79,28.02,20.91c33.99,16.39,68.69,14.09,103.35,2.68c6.76-2.23,8.23-0.46,10.05,5.54
		c11.9,39.06,23.3,78.3,38.62,116.23c3.49,8.63,7.75,16.78,14.8,23.09c8.99,8.06,19.34,10.24,30.53,5.68
		c11.56-4.71,17.14-13.87,17.7-26.25c0.48-10.59-2.62-20.74-3.79-31.13c-3.52-31.21-2.09-61.78,11.37-90.79
		c5.51-11.87,12.91-22.54,23.69-30.34c8.69-6.29,15.04-4.47,19.55,5.36c2.1,4.58,2.88,9.51,3.12,14.54
		c1.05,22.08-3.55,43.71-5.3,65.56c-2.03,25.39-4.5,50.81,2.31,75.86c3.6,13.26,7.68,26.49,19.59,35.18
		c6.56,4.79,13.55,6.37,20.89,1.73c7.13-4.52,8.16-11.33,7.02-19.05c-1.09-7.39-2.09-14.82-2.71-22.26
		c-2.22-26.7,0.96-53.29,1.88-79.92c0.79-23.19,2.71-46.47-3.4-69.19c-6-22.35-17.41-40.63-42.25-45.45
		c-21.38-4.15-37.74,5.83-51.73,20.65C380.04,464.42,370.33,482.02,361.59,501.05z M1645.42,514.44c-0.8-5.95-1.42-10.59-2.04-15.24
		c-5.25-39.04-9-78.29-16.5-117c-2.32-11.96-4.42-24.05-10.52-34.89c-2.63-4.68-6.18-7.92-11.99-7.12
		c-5.45,0.74-8.14,4.36-9.29,9.42c-0.44,1.94-1.11,3.85-1.32,5.81c-1.49,14.13-3.25,28.24-4.25,42.41
		c-3.74,52.84-1.97,105.69,0.04,158.54c1.23,32.39,3.06,64.79,3.37,97.19c0.25,25.69-0.57,51.39,1.06,77.05
		c0.68,10.67,0.59,21.52,4.36,31.75c7.52,20.4,28.7,24.51,43.31,8.49c6.48-7.1,9.55-15.73,10.72-25.03
		c6.57-51.98,6.33-104.08,0.19-155.99c-2.64-22.28,2.2-40.43,19.28-54.95c7.39-6.29,11.41-5.03,14.87,4.13
		c0.53,1.4,1.07,2.81,1.39,4.26c4.34,19.55,6.97,39.24,5.34,59.35c-1.27,15.69-1.19,31.42-0.57,47.13
		c0.32,8.28,1.84,16.36,6.1,23.67c7.57,13.01,23.11,14.74,33.4,3.74c4.39-4.69,6.85-10.39,8.32-16.51
		c7.6-31.58,7.35-63.23,0.59-94.91c-3.87-18.12-8.62-35.9-19.79-51.19c-16.54-22.64-43.48-26.37-65.57-9.07
		C1652.64,508.05,1649.57,510.88,1645.42,514.44z M1200.75,529.53c-2.24-1.61-2.01-3.76-2.41-5.65
		c-3.85-18.03-7.7-36.06-13.51-53.58c-3.99-12.04-7.9-24.17-15.09-34.83c-3.38-5.02-7.56-9-14.22-7.33c-6.71,1.68-8.25,7.29-9,13.24
		c-0.89,7.03,0.74,13.93,1.32,20.86c7.28,86.44,21.93,172.11,27,258.79c0.78,13.32,2.08,26.95,8.67,39.14
		c4.71,8.69,12.07,13.09,22.09,12.4c9.8-0.67,16.06-6.31,19.53-15.08c2.59-6.55,3.18-13.52,3.27-20.56
		c0.39-31.3-2.77-62.37-8.53-92.98c-7.74-41.13-2.08-80.31,13.12-118.57c4.46-11.22,11.43-20.96,21.11-28.56
		c3.91-3.07,6.38-3.4,7.61,2.36c1.57,7.34,2.83,14.64,2,22.2c-1.89,17.34-4.7,34.62-3.89,52.16c0.46,9.98,0.91,20,5.32,29.21
		c7.09,14.83,24.56,17.54,35.99,5.73c3.88-4.01,6.33-8.87,8.32-14.03c8.15-21.08,10.37-42.97,9.33-65.36
		c-1-21.44-6.31-41.38-20.26-58.24c-16.24-19.62-41.46-21.98-61.08-5.8c-10.16,8.38-17.62,18.93-23.71,30.51
		C1208.07,506.3,1204.51,517.87,1200.75,529.53z M1528.05,590.34c-0.25,0-0.49-0.01-0.74-0.01c0-6.98,0.26-13.97-0.05-20.94
		c-1.2-27.75-4.28-55.16-15.71-80.95c-6.18-13.93-14.41-26.21-27.49-34.63c-15.67-10.09-32.46-8.39-45.72,4.65
		c-8.49,8.35-14.19,18.56-19.17,29.22c-0.8,1.72-0.72,4.41-3.28,4.38c-2.42-0.03-2.52-2.69-3.46-4.35
		c-6.16-10.83-12.25-21.71-20.33-31.3c-4.06-4.82-8.56-9.12-14.62-11.31c-9.94-3.6-17.73,1.92-17.47,12.4
		c0.06,2.47,0.54,4.95,1.04,7.37c6.69,32.44,16.27,64.23,21.9,96.92c1.18,6.85,3.71,13.48,7.59,19.38
		c7.56,11.52,20.19,15.87,32.57,11.37c11.95-4.34,19.71-16.78,17.23-29.87c-4.89-25.79,3.05-49.28,12.03-72.61
		c1.7-4.42,3.77-10.9,9.14-10.63c4.93,0.26,7.31,6.35,9.34,10.85c5.86,12.98,7.16,26.92,7.4,40.9c0.63,37.47-3.74,74.68-6.34,111.98
		c-2.17,31.08-5.78,62.08-6.08,93.27c-0.07,6.97,0.11,14.02,2.54,20.68c3.07,8.43,8.99,13.9,18.05,14.77
		c8.75,0.84,15.36-3.36,20.02-10.61c2.44-3.8,3.92-8.03,5.11-12.38c5.18-18.85,7.04-38.21,8.91-57.56c0.58-5.97,1.72-9.68,9.12-9.18
		c7.54,0.5,14.83-1.79,21.24-6.02c11.19-7.38,10.47-22.36-1.35-28.74c-5.43-2.93-11.45-4.11-17.38-3.28
		c-6.81,0.95-7.31-2.02-6.88-7.52C1526.4,621.2,1527.14,605.76,1528.05,590.34z M842.83,679.75c0.09,13.02-0.84,25.95-2.6,38.82
		c-4.12,30.25-14.02,58-34.93,81.04c-12.17,13.41-26.82,18.37-44.55,13.91c-5.09-1.28-10.04-2.84-14.85-4.95
		c-3.11-1.36-6.36-1.65-9.08,0.97c-2.97,2.87-2.54,6.41-1.24,9.76c1.56,4,4.43,7.2,7.36,10.28c24.6,25.83,67.29,29.11,95.53,7.36
		c13.82-10.65,25.21-23.45,33.35-38.89c21.59-40.98,26.53-85.25,24.94-130.64c-1.13-32.16-5.34-64.09-8.11-96.13
		c-2.89-33.3-4.38-66.64-0.22-99.99c0.61-4.89,0.89-10.51-5.09-12.78c-5.47-2.08-9.59,1.33-13.3,4.73c-2.18,2-4.02,4.43-5.76,6.85
		c-6.6,9.17-11.54,19.2-14.97,29.95c-10.93,34.26-12.32,69.59-10.93,105.09C839.33,630.02,841.3,654.88,842.83,679.75z
		 M1000.92,501.8c-9.24-16.93-19.37-31.98-31.49-45.63c-4.65-5.24-9.51-10.33-16.02-13.24c-8.74-3.91-15.51,0.43-15.98,9.96
		c-0.28,5.57,0.66,10.95,2.34,16.21c9.84,30.84,19.04,61.87,27.14,93.23c3.04,11.78,6.72,23.53,14.15,33.54
		c7.24,9.75,16.44,13.38,26.58,10.76c10.92-2.82,17.05-10.02,18.67-22.53c1.89-14.58-2.02-28.43-7.69-41.39
		c-5.09-11.64-3.99-21.89,1.17-32.77c4.09-8.6,7.88-17.36,15.68-23.28c5.53-4.2,11.9-6.66,18.88-3.78
		c6.87,2.83,7.78,9.19,8.21,15.56c0.2,2.97,0.23,6-0.1,8.95c-1.81,16.1-3.98,32.16-5.6,48.28c-1.32,13.16-2.32,26.46,2.25,39.26
		c2.93,8.19,8.32,14.22,17.43,15.68c9.46,1.51,16.51-2.8,21.84-10.1c2.31-3.17,4.25-6.81,5.49-10.53
		c10.99-32.97,10.4-66.38,1.46-99.46c-5.8-21.45-20.35-35.64-43.09-38.28c-22.25-2.58-38.31,8.44-49.59,26.85
		C1008.39,486.05,1005.11,493.62,1000.92,501.8z"/>
	<path class="st1" d="M361.59,501.05c8.73-19.03,18.44-36.63,32.48-51.5c13.99-14.82,30.35-24.8,51.73-20.65
		c24.84,4.82,36.24,23.1,42.25,45.45c6.1,22.72,4.19,46,3.4,69.19c-0.91,26.63-4.1,53.22-1.88,79.92
		c0.62,7.44,1.62,14.87,2.71,22.26c1.14,7.71,0.12,14.53-7.02,19.05c-7.33,4.64-14.33,3.06-20.89-1.73
		c-11.91-8.7-15.99-21.93-19.59-35.18c-6.81-25.06-4.34-50.47-2.31-75.86c1.75-21.86,6.35-43.48,5.3-65.56
		c-0.24-5.03-1.02-9.95-3.12-14.54c-4.5-9.82-10.85-11.65-19.55-5.36c-10.78,7.8-18.17,18.47-23.69,30.34
		c-13.47,29-14.9,59.58-11.37,90.79c1.17,10.39,4.27,20.54,3.79,31.13c-0.56,12.38-6.14,21.55-17.7,26.25
		c-11.18,4.55-21.53,2.38-30.53-5.68c-7.05-6.32-11.31-14.46-14.8-23.09c-15.32-37.93-26.71-77.17-38.62-116.23
		c-1.83-6-3.29-7.77-10.05-5.54c-34.66,11.41-69.36,13.71-103.35-2.68c-10.63-5.13-20.12-12.05-28.02-20.91
		c-2.3-2.58-4.33-5.5-6.03-8.52c-1.86-3.3-3.56-7.39,0.05-10.22c4.12-3.22,6.58,0.72,9.24,3.38c15.78,15.79,35.67,22.31,57.2,24.65
		c23.07,2.51,45.09-2.28,66.68-10.15c5.03-1.83,5.61-4.44,4.55-9.02c-8.88-38.28-13.64-77.13-14.07-116.37
		c-0.37-33.07,3.53-65.73,16.19-96.72c7.59-18.59,18.49-34.85,35.46-46.22c21.62-14.49,46.25-11.89,64.78,6.41
		c18.53,18.31,28.13,40.79,31.23,66.35c7.8,64.21-8.31,121.09-51.99,169.49c-2.5,2.77-5.14,5.44-7.93,7.91
		c-9.11,8.04-9.14,7.99-4.92,19.83C354.69,481.48,358.13,491.27,361.59,501.05z M289.01,345.38c0.24-7-0.47-13.82-3.75-20.21
		c-0.45,6.81-1.82,13.56,0.35,20.25c-0.04,27.83,5.31,55.05,9.22,82.44c8.18,57.25,23.07,112.67,44.82,166.25
		c2.25,5.53,4.97,10.87,7.42,16.32c1.01,2.25,2.35,4.16,5.06,3.05c2.79-1.14,2.1-3.59,1.4-5.78c-1.06-3.32-2.01-6.69-3.31-9.91
		c-20.09-49.82-35.11-101.15-45.55-153.81C298.19,411.32,293.26,378.4,289.01,345.38z M396.27,305.48
		c-0.58-22.71-1.42-46.03-14.56-66.44c-6.66-10.34-14.5-20.96-28.56-19.99c-14.58,1.01-21.28,12.62-26.71,24.42
		c-7.64,16.6-9.72,34.39-10.26,52.43c-1.33,44.66,8.06,87.64,20.29,130.18c2.41,8.4,2.49,8.44,8.84,2.04
		C378.78,394.33,393.05,352.53,396.27,305.48z M461.45,505.04c0.24,20.5-3.6,40.65-5.4,60.97c-1.81,20.46-1.91,40.81,3.92,60.74
		c0.7,2.39,1.06,6.52,4.43,5.95c3.87-0.66,1.94-4.39,1.57-6.85c-2.83-18.84-2.97-37.63-0.48-56.56c2.66-20.22,5.26-40.51,4.09-60.99
		c-0.72-12.65-1.21-25.41-6.5-37.28c-0.76-1.7-1.45-4.37-3.99-3.35c-1.91,0.77-0.97,3.12-0.58,4.71
		C461.17,483.13,461.3,494.08,461.45,505.04z"/>
	<path class="st2" d="M1645.42,514.44c4.15-3.55,7.23-6.39,10.51-8.96c22.09-17.31,49.03-13.58,65.57,9.07
		c11.17,15.29,15.92,33.07,19.79,51.19c6.76,31.68,7.01,63.33-0.59,94.91c-1.47,6.12-3.94,11.82-8.32,16.51
		c-10.29,11.01-25.83,9.27-33.4-3.74c-4.26-7.32-5.78-15.4-6.1-23.67c-0.62-15.71-0.69-31.44,0.57-47.13
		c1.63-20.11-1-39.8-5.34-59.35c-0.32-1.45-0.87-2.86-1.39-4.26c-3.46-9.16-7.48-10.42-14.87-4.13
		c-17.07,14.53-21.91,32.67-19.28,54.95c6.14,51.91,6.37,104.01-0.19,155.99c-1.18,9.3-4.24,17.93-10.72,25.03
		c-14.61,16.02-35.8,11.91-43.31-8.49c-3.77-10.23-3.68-21.08-4.36-31.75c-1.63-25.66-0.81-51.36-1.06-77.05
		c-0.32-32.4-2.14-64.8-3.37-97.19c-2.01-52.85-3.77-105.7-0.04-158.54c1-14.17,2.76-28.28,4.25-42.41
		c0.21-1.96,0.88-3.87,1.32-5.81c1.15-5.06,3.84-8.68,9.29-9.42c5.82-0.8,9.36,2.45,11.99,7.12c6.1,10.85,8.2,22.93,10.52,34.89
		c7.5,38.71,11.26,77.96,16.5,117C1644,503.84,1644.62,508.49,1645.42,514.44z M1710.71,553.68c-0.33-7.85-3.73-14.45-7.95-20.78
		c-0.32,7.39,1.93,14.06,4.09,20.76c1.55,11.37,2.81,22.72,2.49,34.26c-0.36,13.22-0.13,26.45-0.09,39.68
		c0.01,1.6-0.53,3.91,2.06,4.02c2.43,0.11,2.38-2.07,2.62-3.76C1717.43,602.94,1716.74,578.2,1710.71,553.68z M1609.19,424.33
		c0-4.23,0.11-8.47-0.05-12.7c-0.08-2.05,1.19-5.38-1.48-5.8c-3.66-0.57-2.88,3.16-3.23,5.4c-3.57,22.99-3.69,46.23-3.73,69.37
		c-0.1,56.85,2.51,113.64,7.13,170.29c2.55,31.27,4.67,62.63,9.91,93.64c0.48,2.81,0.16,7.05,4.4,6.28
		c3.74-0.68,1.91-4.65,1.71-7.05c-2.49-30.55-5.2-61.09-7.76-91.64C1609.74,576.32,1607.62,500.38,1609.19,424.33z"/>
	<path class="st3" d="M1200.75,529.53c3.76-11.65,7.32-23.23,12.98-33.98c6.09-11.58,13.55-22.13,23.71-30.51
		c19.61-16.18,44.84-13.82,61.08,5.8c13.95,16.86,19.26,36.8,20.26,58.24c1.05,22.4-1.18,44.29-9.33,65.36
		c-2,5.16-4.44,10.02-8.32,14.03c-11.43,11.82-28.9,9.1-35.99-5.73c-4.41-9.21-4.86-19.23-5.32-29.21
		c-0.81-17.54,1.99-34.82,3.89-52.16c0.83-7.57-0.43-14.86-2-22.2c-1.23-5.76-3.69-5.43-7.61-2.36
		c-9.68,7.6-16.65,17.34-21.11,28.56c-15.2,38.27-20.87,77.44-13.12,118.57c5.76,30.61,8.92,61.69,8.53,92.98
		c-0.09,7.04-0.68,14.02-3.27,20.56c-3.47,8.76-9.72,14.4-19.53,15.08c-10.01,0.69-17.38-3.7-22.09-12.4
		c-6.6-12.19-7.89-25.82-8.67-39.14c-5.07-86.69-19.73-172.35-27-258.79c-0.58-6.93-2.21-13.82-1.32-20.86
		c0.75-5.95,2.29-11.56,9-13.24c6.67-1.67,10.84,2.31,14.22,7.33c7.19,10.67,11.1,22.79,15.09,34.83
		c5.81,17.52,9.67,35.56,13.51,53.58C1198.74,525.77,1198.5,527.92,1200.75,529.53z M1162.69,498.29c0.23,16,2.88,31.75,4.89,47.56
		c5.17,40.54,11.36,80.96,14.58,121.73c1.36,17.14,2.75,34.28,4.16,51.41c0.19,2.29-0.75,5.72,3.12,5.5
		c3.71-0.22,2.51-3.58,2.75-5.87c0.1-0.99,0.01-1.99,0.02-2.99c0.2-40.27-4.89-80.09-10.84-119.79
		c-4.87-32.5-10.35-64.92-15.56-97.37c0.33-7.45-0.71-14.6-4.37-21.24C1160.62,484.38,1160.85,491.39,1162.69,498.29z
		 M1283.89,525.23c0.2-8.82-1.11-17.44-3.35-25.89c-0.53-1.99-0.31-5.9-4.05-4.86c-2.93,0.81-1.58,3.82-1.29,5.87
		c1.84,12.92,1.07,25.82,0.27,38.76c-0.8,12.9-3.04,25.77-1.47,38.75c0.2,1.63,0.19,3.91,2.47,4.01c2.59,0.11,2.14-2.32,2.29-3.87
		C1280.52,560.41,1282.19,542.82,1283.89,525.23z"/>
	<path class="st2" d="M1528.05,590.34c-0.91,15.42-1.65,30.85-2.84,46.25c-0.42,5.51,0.07,8.47,6.88,7.52
		c5.93-0.83,11.96,0.35,17.38,3.28c11.81,6.37,12.54,21.36,1.35,28.74c-6.41,4.23-13.7,6.52-21.24,6.02
		c-7.4-0.49-8.54,3.21-9.12,9.18c-1.87,19.35-3.73,38.71-8.91,57.56c-1.2,4.35-2.67,8.59-5.11,12.38
		c-4.67,7.25-11.27,11.45-20.02,10.61c-9.06-0.87-14.98-6.34-18.05-14.77c-2.43-6.66-2.61-13.71-2.54-20.68
		c0.3-31.2,3.91-62.19,6.08-93.27c2.6-37.3,6.97-74.51,6.34-111.98c-0.24-13.98-1.54-27.93-7.4-40.9c-2.03-4.5-4.4-10.59-9.34-10.85
		c-5.37-0.28-7.43,6.2-9.14,10.63c-8.98,23.33-16.91,46.82-12.03,72.61c2.48,13.08-5.28,25.52-17.23,29.87
		c-12.39,4.5-25.01,0.15-32.57-11.37c-3.88-5.91-6.4-12.53-7.59-19.38c-5.64-32.69-15.22-64.48-21.9-96.92
		c-0.5-2.43-0.98-4.91-1.04-7.37c-0.26-10.48,7.52-15.99,17.47-12.4c6.06,2.19,10.56,6.5,14.62,11.31
		c8.08,9.59,14.17,20.47,20.33,31.3c0.95,1.66,1.04,4.31,3.46,4.35c2.56,0.03,2.47-2.66,3.28-4.38
		c4.98-10.66,10.68-20.88,19.17-29.22c13.27-13.04,30.05-14.74,45.72-4.65c13.08,8.42,21.31,20.7,27.49,34.63
		c11.44,25.79,14.51,53.19,15.71,80.95c0.3,6.97,0.05,13.96,0.05,20.94C1527.56,590.33,1527.81,590.34,1528.05,590.34z
		 M1493.29,511.78c0.22-0.95,0.09-1.97-1.05-1.78c-1.1,0.18-1.1,1.13-0.34,1.95c-1.14,18.67-1.37,37.35-1.43,56.05
		c-0.12,32.94-3.14,65.69-6.86,98.39c-1.97,17.33-4.45,34.61-4.83,52.09c-0.05,2.16-0.52,5.19,2.44,5.4
		c3.06,0.21,2.81-3.02,3.09-5.06c0.98-7.16,1.67-14.36,2.6-21.52c5.43-41.79,10.56-83.6,9.67-125.87
		C1496.16,551.51,1496.12,531.57,1493.29,511.78z M1378.25,477.59c-0.17,2.7-0.51,3.76-0.25,4.64c6.94,23.6,9.46,48.32,17.91,71.53
		c1.95,5.36,3.65,10.87,7.37,15.38c1.68,2.04,3.78,3.65,6.44,2.15c2.58-1.45,1.64-3.86,0.75-5.94
		c-8.75-20.41-13.74-42.02-20.32-63.12C1387.61,494.05,1385.03,485.77,1378.25,477.59z"/>
	<path class="st2" d="M842.83,679.75c-1.53-24.88-3.5-49.74-4.47-74.64c-1.39-35.5,0-70.83,10.93-105.09
		c3.43-10.75,8.38-20.78,14.97-29.95c1.74-2.42,3.58-4.84,5.76-6.85c3.71-3.4,7.83-6.81,13.3-4.73c5.98,2.27,5.7,7.89,5.09,12.78
		c-4.16,33.35-2.66,66.69,0.22,99.99c2.78,32.04,6.99,63.97,8.11,96.13c1.59,45.39-3.35,89.66-24.94,130.64
		c-8.14,15.45-19.53,28.25-33.35,38.89c-28.24,21.76-70.93,18.47-95.53-7.36c-2.93-3.08-5.8-6.28-7.36-10.28
		c-1.3-3.35-1.74-6.89,1.24-9.76c2.72-2.63,5.98-2.33,9.08-0.97c4.81,2.11,9.76,3.67,14.85,4.95c17.73,4.47,32.38-0.49,44.55-13.91
		c20.91-23.04,30.82-50.79,34.93-81.04C841.98,705.71,842.91,692.78,842.83,679.75z M850.34,759.91c-2.23,4.22-3.85,8.57-3.51,14.73
		c3.85-4.28,5.72-8.01,5.61-12.64c1.45-4.48,3.19-8.9,4.31-13.46c9.37-37.96,8.92-76.57,7.13-115.22
		c-1.79-38.6-4.73-77.16-1.14-115.81c0.58-6.25,2.71-12.44,1.69-18.92c-2.15,0.17-2.17,1.7-2.52,2.68
		c-2.38,6.57-4.13,13.32-5.16,20.24c-5.66,37.95-4.72,76.04-2.36,114.14C856.96,677.21,860.22,718.77,850.34,759.91z"/>
	<path class="st4" d="M1000.92,501.8c4.19-8.18,7.47-15.75,11.74-22.71c11.28-18.42,27.34-29.44,49.59-26.85
		c22.75,2.64,37.29,16.83,43.09,38.28c8.94,33.08,9.53,66.49-1.46,99.46c-1.24,3.72-3.18,7.36-5.49,10.53
		c-5.33,7.3-12.38,11.62-21.84,10.1c-9.11-1.46-14.5-7.49-17.43-15.68c-4.57-12.8-3.57-26.09-2.25-39.26
		c1.62-16.12,3.79-32.18,5.6-48.28c0.33-2.95,0.3-5.98,0.1-8.95c-0.42-6.36-1.34-12.73-8.21-15.56c-6.98-2.88-13.35-0.42-18.88,3.78
		c-7.8,5.92-11.59,14.68-15.68,23.28c-5.16,10.87-6.26,21.13-1.17,32.77c5.67,12.96,9.58,26.81,7.69,41.39
		c-1.62,12.51-7.75,19.71-18.67,22.53c-10.15,2.62-19.34-1.01-26.58-10.76c-7.43-10.01-11.1-21.75-14.15-33.54
		c-8.1-31.36-17.3-62.38-27.14-93.23c-1.68-5.26-2.61-10.64-2.34-16.21c0.47-9.53,7.23-13.87,15.98-9.96
		c6.52,2.91,11.37,8,16.02,13.24C981.55,469.82,991.68,484.87,1000.92,501.8z M995.84,576.32c-1.98-15.82-5.42-31.09-10.16-46.05
		c-5.81-18.32-13.4-35.87-23.35-52.33c-1.06-1.75-2.57-4.8-4.96-3.43c-2.58,1.47-0.13,3.93,0.76,5.68
		c9.04,17.81,15.76,36.5,20.85,55.77c3.62,13.7,6.69,27.54,10.13,41.29c0.51,2.03,0.98,4.98,4.04,4.35
		C995.85,581.03,995.76,578.34,995.84,576.32z M1075.42,493.18c-1.22,2.15-2.13,3-2.1,3.82c0.46,15.67-2.39,30.93-4.97,46.3
		c-1.88,11.23-2.19,22.72-3.05,34.1c-0.14,1.8-1.02,4.75,1.48,5.16c3.16,0.51,2.54-2.89,3.29-4.78c0.27-0.69,0.54-1.41,0.65-2.13
		c2.55-16.94,5.55-33.84,7.42-50.86C1079.25,514.64,1080.31,504.11,1075.42,493.18z"/>
	<path class="st5" d="M651.37,580.86c-4.11-0.79-4.05,3.03-5.24,5.08c-6.88,11.87-13.92,23.56-23.52,33.57
		c-13.74,14.34-30.01,21.19-49.29,14.57c-19.21-6.6-28.65-22.27-32.69-41.38c-3.53-16.68,0.48-32.75,5.41-48.49
		c5.5-17.56,11.8-34.87,17.59-52.34c2.91-8.79,4.5-17.78,4.14-27.17c-0.35-8.93,5.54-13.29,14.21-11.02
		c7.21,1.89,12.06,6.7,15.37,13.24c8.16,16.13,9.14,33.42,8.3,51.01c-0.97,20.48-6.29,40.34-8.66,60.61
		c-0.59,5.02-3.21,11.52,2.11,14.51c5.35,3.01,9.62-2.77,13.34-5.9c15.86-13.35,27.26-30.28,37.14-48.3
		c0.58-1.07,1.25-2.09,1.87-3.13C651.43,550.75,651.4,565.8,651.37,580.86z M577.83,475.95c-3.46,0.69-2.85,3.19-3.21,4.88
		c-3.94,18.53-9.2,36.71-14.06,55.01c-2.3,8.66-4.48,17.39-4.9,26.41c-0.07,1.45-0.21,3.33,1.74,3.56c1.87,0.22,2.3-1.46,2.58-2.99
		c3.62-19.91,11.94-38.54,15.87-58.36C577.71,495.1,579.42,485.72,577.83,475.95z"/>
	<path class="st6" d="M651.37,580.86c0.03-15.05,0.05-30.11,0.08-45.16c3.26-17.82,9.77-34.36,19.5-49.63
		c2.84-4.46,5.71-9.55,12.16-7.48c6.94,2.23,5.99,8.45,5.43,13.85c-1.94,18.81-4.44,37.58-2.64,56.57
		c0.75,7.97,2.45,15.72,5.35,23.17c3.23,8.29,5.38,9.03,13.41,4.68c9-4.88,15.39-12.53,21.17-20.69
		c4.16-5.87,7.93-12.02,11.87-18.05c2.14,13.27,4.27,26.53,6.41,39.8c-4.05,3.48-5.5,8.68-8.43,12.92
		c-7.52,10.87-16.57,19.97-28.62,25.6c-19.83,9.26-41.56,0.67-50.9-19.94C653.92,591.51,652.17,586.31,651.37,580.86z
		 M660.36,567.84c3.79-2.51,2.71-5.01,2.72-7.04c0.1-19.41,3.39-38.13,11.68-55.82c0.76-1.63,2.96-3.93,0.53-5.16
		c-2.84-1.45-3.48,1.89-4.45,3.65c-6.35,11.53-9.87,23.99-10.28,37.07C660.29,549.26,658.4,558.1,660.36,567.84z"/>
	<path class="st7" d="M744.12,577.91c-2.13-13.27-4.27-26.53-6.41-39.8c2.67-19.25,5.85-38.41,11.29-57.11
		c1.95-6.72,4.6-13.19,8.79-18.88c2.68-3.64,6.21-5.89,10.92-4.72c4.7,1.16,7.23,4.55,7.33,9.23c0.16,7.69-0.16,15.38-0.23,23.08
		c-0.19,23.43-0.86,46.87,2.82,70.16c1.86,11.78,6.35,22.49,12.33,32.65c3.59,6.1,6.5,12.05,0.69,18.4c-4.64,5.08-13.24,6.06-20.8,2
		c-10.83-5.83-16.93-15.92-22.73-26.17C746.55,583.94,745.45,580.86,744.12,577.91z M758.94,480.12c-3.23,0.94-3.48,3.05-4.11,4.85
		c-8.07,23.11-10.47,46.93-8.64,71.24c0.17,2.31-0.22,5.99,3.04,5.87c4.2-0.16,2.6-4.11,2.48-6.49
		c-1.05-20.96,0.11-41.71,5.26-62.15C758.02,489.25,760.29,485.16,758.94,480.12z"/>
	<path class="st8" d="M396.27,305.48c-3.21,47.05-17.48,88.85-50.97,122.64c-6.35,6.4-6.42,6.36-8.84-2.04
		c-12.23-42.54-21.62-85.53-20.29-130.18c0.54-18.04,2.62-35.83,10.26-52.43c5.43-11.8,12.13-23.41,26.71-24.42
		c14.06-0.97,21.9,9.65,28.56,19.99C394.84,259.46,395.69,282.77,396.27,305.48z"/>
	<path class="st9" d="M289.01,345.38c4.26,33.02,9.18,65.94,15.66,98.6c10.44,52.66,25.46,103.99,45.55,153.81
		c1.3,3.22,2.25,6.59,3.31,9.91c0.7,2.19,1.38,4.64-1.4,5.78c-2.71,1.1-4.05-0.81-5.06-3.05c-2.45-5.45-5.17-10.79-7.42-16.32
		c-21.75-53.58-36.64-109-44.82-166.25c-3.91-27.39-9.26-54.61-9.22-82.44C286.74,345.4,287.87,345.39,289.01,345.38z"/>
	<path class="st10" d="M461.45,505.04c-0.15-10.96-0.29-21.91-2.94-32.66c-0.39-1.58-1.34-3.93,0.58-4.71
		c2.54-1.03,3.23,1.65,3.99,3.35c5.29,11.87,5.77,24.63,6.5,37.28c1.17,20.48-1.43,40.77-4.09,60.99
		c-2.49,18.92-2.35,37.72,0.48,56.56c0.37,2.45,2.31,6.19-1.57,6.85c-3.37,0.57-3.73-3.55-4.43-5.95
		c-5.82-19.94-5.73-40.28-3.92-60.74C457.86,545.69,461.7,525.55,461.45,505.04z"/>
	<path class="st11" d="M289.01,345.38c-1.13,0.01-2.27,0.03-3.4,0.04c-2.17-6.69-0.8-13.44-0.35-20.25
		C288.54,331.56,289.25,338.38,289.01,345.38z"/>
	<path class="st12" d="M1609.19,424.33c-1.57,76.05,0.55,151.99,6.9,227.79c2.56,30.55,5.27,61.08,7.76,91.64
		c0.2,2.4,2.03,6.37-1.71,7.05c-4.24,0.77-3.93-3.47-4.4-6.28c-5.25-31-7.36-62.37-9.91-93.64c-4.62-56.65-7.23-113.44-7.13-170.29
		c0.04-23.14,0.16-46.38,3.73-69.37c0.35-2.24-0.43-5.96,3.23-5.4c2.68,0.41,1.41,3.75,1.48,5.8
		C1609.29,415.86,1609.19,420.1,1609.19,424.33z"/>
	<path class="st12" d="M1710.71,553.68c6.03,24.51,6.72,49.26,3.22,74.18c-0.24,1.69-0.19,3.86-2.62,3.76
		c-2.59-0.11-2.06-2.42-2.06-4.02c-0.04-13.23-0.27-26.46,0.09-39.68c0.31-11.53-0.94-22.89-2.49-34.26
		C1708.13,553.67,1709.42,553.68,1710.71,553.68z"/>
	<path class="st11" d="M1710.71,553.68c-1.29,0-2.58-0.01-3.87-0.01c-2.15-6.7-4.4-13.37-4.09-20.76
		C1706.99,539.24,1710.38,545.84,1710.71,553.68z"/>
	<path class="st12" d="M1165.82,498.46c5.21,32.45,10.69,64.87,15.56,97.37c5.94,39.71,11.03,79.52,10.84,119.79
		c0,1,0.08,2-0.02,2.99c-0.23,2.29,0.96,5.66-2.75,5.87c-3.88,0.22-2.93-3.21-3.12-5.5c-1.42-17.13-2.8-34.27-4.16-51.41
		c-3.23-40.77-9.41-81.19-14.58-121.73c-2.02-15.81-4.67-31.56-4.89-47.56C1163.74,498.34,1164.78,498.4,1165.82,498.46z"/>
	<path class="st13" d="M1283.89,525.23c-1.7,17.59-3.37,35.19-5.13,52.77c-0.15,1.55,0.3,3.98-2.29,3.87
		c-2.29-0.1-2.27-2.38-2.47-4.01c-1.58-12.99,0.67-25.85,1.47-38.75c0.8-12.95,1.58-25.84-0.27-38.76
		c-0.29-2.04-1.64-5.06,1.29-5.87c3.74-1.03,3.52,2.88,4.05,4.86C1282.78,507.79,1284.09,516.4,1283.89,525.23z"/>
	<path class="st11" d="M1165.82,498.46c-1.04-0.06-2.09-0.11-3.13-0.17c-1.85-6.9-2.07-13.9-1.24-21.07
		C1165.11,483.86,1166.16,491.01,1165.82,498.46z"/>
	<path class="st13" d="M1493.29,511.78c2.83,19.78,2.87,39.73,3.29,59.64c0.89,42.27-4.24,84.08-9.67,125.87
		c-0.93,7.17-1.61,14.36-2.6,21.52c-0.28,2.04-0.03,5.27-3.09,5.06c-2.96-0.21-2.49-3.24-2.44-5.4c0.38-17.47,2.85-34.76,4.83-52.09
		c3.72-32.7,6.74-65.45,6.86-98.39c0.07-18.7,0.29-37.39,1.43-56.05C1492.36,511.93,1492.83,511.88,1493.29,511.78z"/>
	<path class="st9" d="M1378.25,477.59c6.77,8.17,9.35,16.46,11.91,24.65c6.57,21.11,11.57,42.72,20.32,63.12
		c0.89,2.08,1.84,4.49-0.75,5.94c-2.67,1.5-4.76-0.12-6.44-2.15c-3.72-4.51-5.42-10.03-7.37-15.38
		c-8.45-23.22-10.97-47.93-17.91-71.53C1377.74,481.35,1378.08,480.29,1378.25,477.59z"/>
	<path class="st11" d="M1493.29,511.78c-0.46,0.09-0.92,0.15-1.39,0.16c-0.76-0.81-0.76-1.76,0.34-1.95
		C1493.38,509.81,1493.51,510.83,1493.29,511.78z"/>
	<path class="st10" d="M850.34,759.91c9.88-41.14,6.62-82.7,4.05-124.25c-2.36-38.1-3.3-76.2,2.36-114.14
		c1.03-6.92,2.78-13.67,5.16-20.24c0.35-0.98,0.37-2.51,2.52-2.68c1.03,6.48-1.1,12.67-1.69,18.92
		c-3.6,38.65-0.65,77.22,1.14,115.81c1.79,38.64,2.24,77.25-7.13,115.22c-1.13,4.56-2.86,8.98-4.31,13.46
		C851.73,761.3,851.04,760.6,850.34,759.91z"/>
	<path class="st11" d="M850.34,759.91c0.7,0.7,1.4,1.39,2.09,2.09c0.11,4.63-1.76,8.36-5.61,12.65
		C846.49,768.48,848.11,764.12,850.34,759.91z"/>
	<path class="st10" d="M995.84,576.32c-0.08,2.02,0.01,4.71-2.68,5.27c-3.06,0.64-3.54-2.32-4.04-4.35
		c-3.44-13.75-6.51-27.59-10.13-41.29c-5.09-19.26-11.81-37.95-20.85-55.77c-0.89-1.75-3.34-4.21-0.76-5.68
		c2.39-1.37,3.9,1.68,4.96,3.43c9.95,16.47,17.54,34.01,23.35,52.33C990.43,545.23,993.86,560.49,995.84,576.32z"/>
	<path class="st13" d="M1075.42,493.18c4.89,10.93,3.83,21.46,2.71,31.61c-1.87,17.02-4.87,33.91-7.42,50.86
		c-0.11,0.73-0.38,1.44-0.65,2.13c-0.74,1.89-0.13,5.29-3.29,4.78c-2.49-0.4-1.61-3.35-1.48-5.16c0.86-11.39,1.17-22.88,3.05-34.1
		c2.57-15.37,5.43-30.63,4.97-46.3C1073.3,496.18,1074.2,495.33,1075.42,493.18z"/>
	<path class="st14" d="M577.83,475.95c1.6,9.77-0.12,19.15-1.98,28.51c-3.93,19.82-12.24,38.45-15.87,58.36
		c-0.28,1.53-0.71,3.2-2.58,2.99c-1.96-0.23-1.81-2.1-1.74-3.56c0.42-9.03,2.6-17.75,4.9-26.41c4.85-18.29,10.11-36.48,14.06-55.01
		C574.98,479.14,574.37,476.64,577.83,475.95z"/>
	<path class="st11" d="M660.36,567.84c-1.96-9.74-0.07-18.57,0.2-27.3c0.41-13.08,3.93-25.54,10.28-37.07
		c0.97-1.76,1.61-5.1,4.45-3.65c2.42,1.23,0.23,3.53-0.53,5.16c-8.29,17.7-11.58,36.41-11.68,55.82
		C663.07,562.83,664.15,565.33,660.36,567.84z"/>
	<path class="st14" d="M758.94,480.12c1.36,5.04-0.91,9.14-1.97,13.31c-5.15,20.44-6.32,41.19-5.26,62.15
		c0.12,2.38,1.72,6.33-2.48,6.49c-3.27,0.12-2.87-3.56-3.04-5.87c-1.83-24.31,0.58-48.12,8.64-71.24
		C755.45,483.17,755.71,481.06,758.94,480.12z"/>
</g>
</svg>
